<svg xmlns="http://www.w3.org/2000/svg" viewBox="0 0 16 16" id="Circle-Pause--Streamline-Font-Awesome" height="16" width="16"><desc>Circle Pause Streamline Icon: https://streamlinehq.com</desc><!--! Font Awesome Free 6.5.2 by @fontawesome - https://fontawesome.com License - https://fontawesome.com/license/free (Icons: CC BY 4.0, Fonts: SIL OFL 1.1, Code: MIT License) Copyright 2024 Fonticons, Inc.--><path d="M8 16a8 8 0 1 0 0 -16 8 8 0 1 0 0 16zm-1 -10v4c0 0.553125 -0.446875 1 -1 1s-1 -0.446875 -1 -1V6c0 -0.553125 0.446875 -1 1 -1s1 0.446875 1 1zm4 0v4c0 0.553125 -0.446875 1 -1 1s-1 -0.446875 -1 -1V6c0 -0.553125 0.446875 -1 1 -1s1 0.446875 1 1z" fill="#000000" stroke-width="0.0313"></path></svg>